HIERARCHY
ROOT ui
{
	 OFFSET 0 0 0
	 CHANNELS 3 XPosition YPosition Z Position
	 EndSite
	 {
	 OFFSET 0 -1 0
	 }
}
ROOT li
{
	 OFFSET 0 0 0
	 CHANNELS 3 XPosition YPosition Z Position
	 EndSite
	 {
	 OFFSET 0 -1 0
	 }
}
ROOT ul
{
	 OFFSET 0 0 0
	 CHANNELS 3 XPosition YPosition Z Position
	 EndSite
	 {
	 OFFSET 0 -1 0
	 }
}
ROOT ll
{
	 OFFSET 0 0 0
	 CHANNELS 3 XPosition YPosition Z Position
	 EndSite
	 {
	 OFFSET 0 -1 0
	 }
}
ROOT tt
{
	 OFFSET 0 0 0
	 CHANNELS 3 XPosition YPosition Z Position
	 EndSite
	 {
	 OFFSET 0 -1 0
	 }
}
ROOT tb
{
	 OFFSET 0 0 0
	 CHANNELS 3 XPosition YPosition Z Position
	 EndSite
	 {
	 OFFSET 0 -1 0
	 }
}
ROOT td
{
	 OFFSET 0 0 0
	 CHANNELS 3 XPosition YPosition Z Position
	 EndSite
	 {
	 OFFSET 0 -1 0
	 }
}
ROOT v
{
	 OFFSET 0 0 0
	 CHANNELS 3 XPosition YPosition Z Position
	 EndSite
	 {
	 OFFSET 0 -1 0
	 }
}
ROOT bn
{
	 OFFSET 0 0 0
	 CHANNELS 3 XPosition YPosition Z Position
	 EndSite
	 {
	 OFFSET 0 -1 0
	 }
}
MOTION
Frames: 32
Frame Time: 0.002
0.0016042289733886718	1.2527500092983246E-4	0		0.4365772399902344	-2.381378662109375	0		-1.1218790283203126	-0.05234782028198242	0		-0.832732421875	-2.46854541015625	0		1.5490826416015624	-0.7002349853515625	0		3.151177734375	0.033533748626708985	0		4.546681640625	0.08382235717773437	0		5.56453271484375	0.10968994140625	0		-0.21654161071777345	5.9346181640625	0		
-0.0413857536315918	0.007614352226257324	0		0.42536865234375	-2.381625244140625	0		-1.1108157958984375	-0.043064208984375	0		-0.7820726318359374	-2.47517431640625	0		1.554065185546875	-0.6938712768554688	0		3.183419189453125	0.05024591445922852	0		4.55233935546875	0.07510298919677734	0		5.5785302734375	0.11576284790039063	0		-0.18810430908203124	5.95449267578125	0		
0.008414237022399903	0.004996551036834717	0		0.441289794921875	-2.376479736328125	0		-1.1109810791015624	-0.043522457122802734	0		-0.8038930053710938	-2.458142578125	0		1.55388720703125	-0.694382080078125	0		3.150150634765625	0.045455833435058594	0		4.557357421875	0.08241710662841797	0		5.57418701171875	0.10726585388183593	0		-0.21857623291015624	5.93570458984375	0		
0.008239789009094238	0.004529143810272217	0		0.43902786254882814	-2.37890869140625	0		-1.1211082763671876	-0.04174253082275391	0		-0.7712338256835938	-2.46434619140625	0		1.5705819091796875	-0.70026318359375	0		3.149976806640625	0.044932483673095706	0		4.54823193359375	0.08407331085205078	0		5.55086083984375	0.10022537231445312	0		-0.21864506530761718	5.9352412109375	0		
0.004982625961303711	0.001148138999938965	0		0.4465478515625	-2.390545166015625	0		-1.125388671875	-0.046082683563232425	0		-0.8094751586914063	-2.464917236328125	0		1.54147998046875	-0.69607763671875	0		3.154626953125	0.037320579528808594	0		4.5528603515625	0.07543965148925781	0		5.55967041015625	0.09948261260986328	0		-0.21874119567871095	5.93479443359375	0		
-0.04519134521484375	0.0028592851161956786	0		0.44835073852539065	-2.389027099609375	0		-1.1156473388671875	-0.048724727630615236	0		-0.79483642578125	-2.470677001953125	0		1.55018994140625	-0.6997327270507813	0		3.154623046875	0.04584589385986328	0		4.5457900390625	0.08110654449462891	0		5.55464599609375	0.10708970642089843	0		-0.20364630126953126	5.94402294921875	0		
0.007606874942779541	0.003242616891860962	0		0.41441873168945315	-2.374666015625	0		-1.111791259765625	-0.04521107864379883	0		-0.8397664794921875	-2.45605078125	0		1.549948486328125	-0.7001566772460938	0		3.152481689453125	0.04944852828979492	0		4.55173828125	0.08850983428955078	0		5.5634111328125	0.10641523742675782	0		-0.20381314086914062	5.94361865234375	0		
-0.04261429214477539	0.005002840995788575	0		0.44006521606445315	-2.378644287109375	0		-1.1189327392578126	-0.04042412948608398	0		-0.7943314819335937	-2.469472412109375	0		1.54968505859375	-0.700552001953125	0		3.1640849609375	0.04276641845703125	0		4.5562978515625	0.07997569274902344	0		5.5541572265625	0.10618978881835937	0		-0.21924183654785157	5.933583984375	0		
0.0070743408203125	0.0025054850578308105	0		0.43772891235351563	-2.380956298828125	0		-1.1222762451171875	-0.043702926635742184	0		-0.8074598999023438	-2.46252734375	0		1.5473370361328125	-0.7038711547851563	0		3.157765625	0.040527725219726564	0		4.5470712890625	0.08179534149169922	0		5.5728544921875	0.10436390686035156	0		-0.21947830200195312	5.93322998046875	0		
0.003721402883529663	-7.544569969177246E-4	0		0.48723760986328124	-2.390427978515625	0		-1.1266519775390624	-0.04793489074707031	0		-0.8088011474609375	-2.464829833984375	0		1.547048828125	-0.7042070922851562	0		3.138599853515625	0.04561776351928711	0		4.55092236328125	0.08735352325439454	0		5.56259521484375	0.1052389144897461	0		-0.21973793029785157	5.93290185546875	0		
0.006504624843597412	0.001872778058052063	0		0.42101104736328127	-2.387224609375	0		-1.1128946533203126	-0.04655646514892578	0		-0.7854398803710938	-2.480676025390625	0		1.5467628173828125	-0.704513671875	0		3.1380869140625	0.03531049346923828	0		4.54613623046875	0.06513789367675782	0		5.5533134765625	0.10512972259521484	0		-0.21805647277832033	5.9305537109375	0		
0.006230348110198974	0.001594511032104492	0		0.4507750549316406	-2.38618896484375	0		-1.1073074951171875	-0.05297047805786133	0		-0.7934373779296875	-2.46877490234375	0		1.5516473388671874	-0.6979077758789063	0		3.170215576171875	0.052296714782714845	0		4.548318359375	0.08480946350097657	0		5.56619580078125	0.11155345916748047	0		-0.20410687255859375	5.93995263671875	0		
0.009042292594909669	0.0042710280418396	0		0.440733154296875	-2.3772158203125	0		-1.1093570556640624	-0.04418391036987305	0		-0.8044788208007813	-2.45978173828125	0		1.548302490234375	-0.7020886840820313	0		3.1477138671875	0.04155568313598633	0		4.56010498046875	0.08629133605957032	0		5.57175537109375	0.1031774673461914	0		-0.22055540466308593	5.93206591796875	0		
0.002675896883010864	-0.0018218590021133424	0		0.43639981079101564	-2.382352783203125	0		-1.12360693359375	-0.0451003532409668	0		-0.8087889404296875	-2.463924560546875	0		1.5480748291015625	-0.7023132934570312	0		3.14748291015625	0.04133827209472656	0		4.55055615234375	0.07228956604003907	0		5.57152392578125	0.1029709701538086	0		-0.22081295776367188	5.9318330078125	0		
0.005542675018310547	8.978970050811767E-4	0		0.4362144470214844	-2.382560791015625	0		-1.1238076171875	-0.04531867218017578	0		-0.8100192260742187	-2.466117431640625	0		1.5458104248046876	-0.7054676513671875	0		3.147984375	0.02812848663330078	0		4.54140283203125	0.07431346130371094	0		5.557166015625	0.09611811065673828	0		-0.22007589721679688	5.93059814453125	0		
0.0023074769973754883	-0.002225212097167969	0		0.44585919189453127	-2.3919755859375	0		-1.11402294921875	-0.04774849319458008	0		-0.797328857421875	-2.47361181640625	0		1.54564892578125	-0.7056469116210937	0		3.141298095703125	0.04911724472045898	0		4.5385322265625	0.08722486114501952	0		5.552181640625	0.10408512878417969	0		-0.2060464324951172	5.94108154296875	0		
0.005243771076202393	5.296429991722107E-4	0		0.42187301635742186	-2.386600341796875	0		-1.1141539306640624	-0.04793600463867188	0		-0.79638916015625	-2.4718193359375	0		1.5475927734375	-0.7028531494140625	0		3.151821044921875	0.03372687149047852	0		4.5541904296875	0.0777333526611328	0		5.55623046875	0.11187361145019531	0		-0.20721658325195313	5.94192578125	0		
0.00514995288848877	3.6843499541282655E-4	0		0.44000872802734375	-2.37816943359375	0		-1.1142470703125	-0.04811077880859375	0		-0.8421672973632812	-2.458944091796875	0		1.547507568359375	-0.7029956665039062	0		3.150023681640625	0.04664603424072265	0		4.54927978515625	0.08573923492431641	0		5.57092626953125	0.10243986511230468	0		-0.22065274047851563	5.93006201171875	0		
0.005094158172607422	2.2006799280643464E-4	0		0.43587234497070315	-2.383219482421875	0		-1.11430224609375	-0.048274364471435544	0		-0.809312255859375	-2.46485498046875	0		1.5453934326171874	-0.7060767211914063	0		3.15167041015625	0.03349821472167969	0		4.5450869140625	0.07974540710449218	0		5.56089453125	0.10359487915039063	0		-0.22176609802246094	5.93093310546875	0		
0.002008035898208618	-0.002848151922225952	0		0.43588909912109375	-2.383350341796875	0		-1.12427197265625	-0.04620099639892578	0		-0.810339599609375	-2.466981201171875	0		1.5385238037109374	-0.7000333251953125	0		3.130839111328125	0.041883823394775394	0		4.54506689453125	0.07967531585693359	0		5.56087451171875	0.1035398406982422	0		-0.22187251281738282	5.9307919921875	0		
-0.044871078491210935	0.0020927119255065916	0		0.4359442749023438	-2.3834716796875	0		-1.1143017578125	-0.04857398986816406	0		-0.79744580078125	-2.474416259765625	0		1.5454140625	-0.7062949829101562	0		3.1325595703125	0.02876291847229004	0		4.53990283203125	0.07173478698730469	0		5.55607373046875	0.11161118316650391	0		-0.21999452209472656	5.92861572265625	0		
0.008215418815612793	0.0027652649879455564	0		0.459736328125	-2.397127685546875	0		-1.110178955078125	-0.04580459213256836	0		-0.8291827392578125	-2.46682373046875	0		1.5595450439453125	-0.7037092895507813	0		3.15897119140625	0.04409840774536133	0		4.543091796875	0.07761927795410156	0		5.57509912109375	0.11015023040771485	0		-0.20581353759765625	5.93817041015625	0		
0.00524427604675293	-2.802950143814087E-4	0		0.4402874450683594	-2.378784423828125	0		-1.116943603515625	-0.039780406951904296	0		-0.7941220703125	-2.4707470703125	0		1.5476563720703125	-0.7035248413085937	0		3.136822265625	0.033539958953857425	0		4.5493671875	0.08544274139404297	0		5.5651962890625	0.11035688781738281	0		-0.22199505615234374	5.93041796875	0		
0.00538819694519043	-3.9123401045799256E-4	0		0.4384039306640625	-2.381842041015625	0		-1.120888916015625	-0.04381841659545899	0		-0.8067740478515625	-2.463578125	0		1.5478121337890625	-0.7036097412109374	0		3.1471220703125	0.04025298690795898	0		4.552236328125	0.07334355926513672	0		5.5669970703125	0.0952983627319336	0		-0.2484444122314453	5.9088994140625	0		
0.00558499813079834	-5.008360147476196E-4	0		0.436595458984375	-2.3838984375	0		-1.1237586669921875	-0.046877880096435544	0		-0.8096263427734375	-2.467632080078125	0		1.545953125	-0.7066475219726562	0		3.133049560546875	0.028516506195068358	0		4.54725146484375	0.06542512512207031	0		5.55237744140625	0.10361966705322266	0		-0.2493229217529297	5.90980810546875	0		
0.0027713310718536378	-0.003542494058609009	0		0.4207556457519531	-2.389637451171875	0		-1.11355224609375	-0.04923295211791992	0		-0.796494873046875	-2.475048828125	0		1.5462181396484376	-0.7067330322265625	0		3.137641845703125	0.04336206817626953	0		4.5506396484375	0.07131858062744141	0		5.561626953125	0.10339484405517578	0		-0.22071853637695313	5.92905322265625	0		
0.006151740074157715	-7.245690226554871E-4	0		0.45114401245117186	-2.3884248046875	0		-1.10917138671875	-0.046455257415771486	0		-0.7930529174804688	-2.47124365234375	0		1.509665283203125	-0.7009846801757813	0		3.1377275390625	0.0333006591796875	0		4.55026904296875	0.0852958984375	0		5.56609619140625	0.11027653503417968	0		-0.22049870300292967	5.9289365234375	0		
0.006525927066802979	-8.420720100402832E-4	0		0.4158132019042969	-2.37672265625	0		-1.1197484130859374	-0.0443411979675293	0		-0.80547900390625	-2.464080810546875	0		1.548994873046875	-0.7039620361328125	0		3.14825732421875	0.04000283432006836	0		4.5465068359375	0.0793401870727539	0		5.5722861328125	0.10211038208007812	0		-0.22119248962402344	5.929837890625	0		
0.00696134090423584	-9.649289846420288E-4	0		0.4401648254394531	-2.382381591796875	0		-1.1193123779296874	-0.04448090362548828	0		-0.8050067138671875	-2.4642158203125	0		1.5473734130859376	-0.7070157470703125	0		3.1426708984375	0.03906305313110352	0		4.5359443359375	0.07953424835205078	0		5.5727197265625	0.10207078552246093	0		-0.22084579467773438	5.92971142578125	0		
0.004389513015747071	-0.004025310039520264	0		0.438650146484375	-2.38445849609375	0		-1.121883544921875	-0.0475577392578125	0		-0.8065202026367188	-2.46631103515625	0		1.5447891845703126	-0.7110534057617187	0		3.14507470703125	0.03493563461303711	0		4.547435546875	0.07922256469726563	0		5.56323876953125	0.10324906158447265	0		-0.2204371795654297	5.9295791015625	0		
0.00800880241394043	-0.0012294909954071046	0		0.45109759521484377	-2.390857666015625	0		-1.11137841796875	-0.049934955596923826	0		-0.7930944213867187	-2.473750244140625	0		1.5084967041015624	-0.7043320922851563	0		3.13958251953125	0.032980976104736326	0		4.54594189453125	0.07719746398925781	0		5.5589716796875	0.1113037109375	0		-0.21899240112304688	5.92841796875	0		
-0.041350467681884766	7.580140233039856E-4	0		0.4298998718261719	-2.383498046875	0		-1.100820068359375	-0.052317848205566404	0		-0.7883654174804687	-2.46999462890625	0		1.5569639892578124	-0.7115361938476562	0		3.159295654296875	0.037451892852783206	0		4.5465458984375	0.07711844635009765	0		5.5785478515625	0.10980970764160156	0		-0.21749209594726562	5.92725048828125	0		
